<?xml version="1.0" standalone="no"?>
<!DOCTYPE svg PUBLIC "-//W3C//DTD SVG 20010904//EN"
        "http://www.w3.org/TR/2001/REC-SVG-20010904/DTD/svg10.dtd">
<svg version="1.0" xmlns="http://www.w3.org/2000/svg"
     width="960.000000pt" height="1280.000000pt" viewBox="0 0 960.000000 1280.000000"
     preserveAspectRatio="xMidYMid meet">
    <metadata>
        Created by potrace 1.15, written by Peter Selinger 2001-2017
    </metadata>
    <g transform="translate(0.000000,1280.000000) scale(0.100000,-0.100000)"
       fill="#4f8a8b" stroke="none">
        <path d="M5909 12630 c-81 -43 -196 -175 -257 -295 -55 -110 -83 -275 -62
-364 12 -50 44 -94 85 -117 18 -10 19 -14 6 -65 -27 -105 -111 -239 -266 -424
-187 -223 -256 -339 -315 -535 -61 -199 -76 -244 -87 -247 -15 -5 -127 218
-162 322 -39 118 -54 229 -50 363 5 122 13 142 64 142 65 0 152 88 180 182 39
133 39 295 -1 428 -18 62 -66 163 -93 199 l-18 24 -37 -22 c-59 -37 -125 -120
-177 -226 -62 -127 -82 -217 -77 -350 5 -129 27 -181 94 -216 l45 -24 -5 -80
c-2 -44 -8 -122 -12 -172 l-7 -93 -73 70 c-40 38 -90 80 -111 93 -64 40 -68
50 -68 156 0 81 -4 104 -24 146 -33 66 -133 165 -201 198 -141 69 -331 70
-492 4 l-33 -14 40 -20 c57 -30 97 -76 146 -168 87 -165 174 -245 304 -280 58
-16 74 -17 128 -6 34 7 73 15 87 18 19 3 39 -8 88 -49 120 -102 185 -198 390
-578 214 -395 255 -533 256 -857 1 -203 -4 -217 -57 -146 -20 26 -48 62 -62
79 -25 30 -25 32 -10 75 38 107 7 249 -75 342 l-29 34 15 49 c21 67 35 200 28
251 l-6 43 -45 -40 c-24 -21 -66 -46 -92 -55 -65 -21 -201 -46 -213 -39 -6 4
-18 25 -29 48 l-18 41 -16 -38 c-9 -21 -18 -51 -22 -67 -3 -19 -21 -42 -49
-63 -98 -77 -147 -165 -149 -271 -2 -83 3 -78 -175 -178 -157 -88 -298 -158
-321 -158 -21 0 -31 37 -24 92 15 110 14 107 49 114 78 14 131 73 162 180 25
88 15 293 -20 393 -38 108 -133 261 -162 261 -26 0 -107 -99 -144 -175 -96
-197 -112 -432 -40 -575 23 -45 47 -67 96 -84 l39 -13 -3 -118 -4 -118 -87
-96 c-118 -130 -201 -236 -284 -361 -176 -266 -210 -391 -223 -811 l-7 -226
-75 81 c-228 246 -328 459 -387 829 -12 77 -13 102 -4 113 18 22 28 93 17 130
-5 18 -18 40 -30 48 -20 15 -21 20 -15 188 4 95 11 207 17 248 10 68 15 79 53
118 60 62 68 65 127 46 145 -47 340 53 432 222 40 74 58 156 59 264 0 92 -16
200 -29 200 -4 0 -18 -16 -32 -34 -35 -48 -74 -72 -196 -122 -165 -67 -230
-119 -287 -229 -26 -50 -31 -72 -31 -130 -1 -38 3 -83 7 -99 7 -25 3 -33 -34
-67 -23 -21 -44 -38 -45 -36 -2 2 7 61 20 133 48 259 44 349 -25 578 -22 72
-42 154 -45 182 -7 53 12 332 25 380 7 28 10 31 72 57 192 82 258 372 137 599
-32 60 -128 172 -178 208 l-28 20 0 -58 c0 -65 -14 -105 -66 -186 -58 -91 -87
-155 -102 -227 -26 -127 13 -261 100 -335 l39 -34 -17 -137 c-20 -165 -36
-263 -44 -263 -9 0 -73 50 -144 112 -36 32 -93 79 -125 104 l-58 45 0 97 c0
84 -4 104 -27 154 -54 117 -145 186 -324 249 -102 35 -156 69 -189 117 -13 18
-26 29 -29 23 -17 -27 -27 -180 -16 -261 30 -235 210 -421 407 -421 42 0 86 6
109 16 45 19 42 20 192 -109 300 -259 380 -508 295 -926 -17 -85 -37 -193 -43
-240 -7 -47 -14 -91 -16 -99 -3 -9 -50 30 -132 110 -70 68 -136 129 -147 135
-17 10 -18 14 -7 51 34 113 -14 210 -152 307 -124 88 -243 131 -395 142 -101
7 -164 -4 -169 -29 -7 -36 39 -157 87 -229 127 -189 308 -312 462 -313 57 0
70 4 103 28 l37 29 44 -26 c44 -26 185 -179 211 -228 14 -27 14 -27 -27 -38
-34 -9 -52 -8 -108 8 -36 11 -98 22 -138 25 -82 5 -127 28 -157 78 l-20 33
-27 -59 c-14 -33 -42 -101 -60 -151 -30 -82 -36 -91 -59 -91 -14 1 -33 -3 -42
-7 -14 -6 -18 -4 -18 11 0 10 -16 52 -35 92 -60 124 -180 223 -325 265 -64 19
-180 37 -192 30 -4 -3 5 -23 21 -45 35 -47 48 -101 56 -234 10 -156 47 -246
136 -332 52 -50 114 -79 187 -89 53 -7 53 -7 83 -65 16 -32 29 -62 29 -66 0
-10 -526 -4 -553 6 -10 4 -33 41 -52 86 l-34 79 29 44 c44 66 53 104 48 201
-6 122 -40 184 -173 321 -108 111 -129 141 -141 205 l-7 39 -24 -30 c-69 -83
-133 -264 -133 -373 0 -209 142 -397 317 -419 54 -7 59 -9 80 -47 12 -23 23
-61 25 -85 3 -39 0 -44 -22 -51 -14 -4 -57 -7 -96 -8 l-71 -1 -26 39 c-27 40
-94 93 -141 111 -15 5 -53 14 -85 19 -149 24 -311 -37 -428 -163 -59 -63 -152
-211 -140 -223 3 -2 16 1 31 7 52 19 144 11 250 -22 81 -25 118 -32 191 -32
81 0 97 3 162 33 79 37 117 71 160 146 28 47 32 50 79 56 62 8 824 23 824 16
0 -2 -58 -59 -129 -125 l-130 -121 -46 16 c-133 45 -318 -37 -410 -182 -73
-115 -101 -270 -76 -420 17 -98 22 -104 54 -56 31 46 88 82 206 129 143 57
224 124 273 228 35 74 45 147 29 210 l-12 47 53 55 c29 30 100 86 158 124
l105 70 70 -4 c76 -5 304 -77 405 -128 118 -60 221 -165 313 -322 105 -179
262 -354 542 -609 222 -202 542 -519 639 -634 66 -78 123 -162 114 -170 -2 -2
-21 0 -43 5 -22 5 -240 14 -485 20 -384 9 -510 16 -525 32 -12 12 -104 173
-124 215 l-24 51 36 36 c87 87 69 239 -47 415 -80 120 -212 227 -340 276 -47
18 -49 18 -62 1 -23 -32 -37 -127 -31 -211 13 -174 76 -336 173 -444 79 -87
111 -104 185 -99 35 3 63 0 68 -6 26 -33 132 -259 125 -265 -5 -5 -70 -23
-144 -41 -74 -17 -202 -54 -283 -81 -81 -27 -154 -49 -163 -49 -8 0 -44 13
-79 29 -63 29 -65 31 -65 68 0 58 -49 152 -106 202 -159 142 -386 152 -609 28
l-59 -34 -18 71 c-22 89 -86 217 -137 276 l-39 45 -51 -49 c-90 -88 -165 -270
-177 -429 -7 -88 13 -224 42 -278 20 -40 63 -77 96 -84 31 -7 40 -17 44 -52 1
-14 -3 -23 -12 -23 -21 0 -18 -8 26 -66 37 -47 150 -255 150 -275 0 -13 -40
-11 -205 11 -82 11 -175 22 -206 25 -45 5 -59 11 -68 28 -6 12 -20 34 -32 48
l-21 27 26 44 c30 52 35 121 11 188 -34 97 -162 238 -279 309 -72 43 -209 90
-272 93 l-49 3 -3 -73 c-4 -96 16 -173 77 -297 77 -157 209 -286 324 -316 38
-11 51 -10 92 5 l47 18 34 -33 c30 -29 32 -34 17 -40 -20 -7 -8 -11 70 -24
l38 -6 -48 -40 c-53 -44 -64 -46 -119 -23 -27 11 -59 15 -109 12 -178 -9 -336
-153 -391 -355 -23 -86 -20 -323 4 -323 4 0 15 12 25 28 31 46 90 80 193 113
55 18 119 42 144 54 75 38 146 109 182 183 30 60 33 75 33 155 l0 89 59 52 59
53 86 -14 c230 -36 642 -134 855 -205 69 -23 69 -23 83 -71 8 -26 20 -50 28
-53 8 -3 42 7 76 22 l61 28 69 -24 c38 -13 69 -27 69 -31 0 -9 -52 -20 -220
-48 -143 -25 -300 -61 -451 -106 -113 -33 -163 -52 -363 -134 -55 -23 -103
-41 -108 -41 -5 0 -32 16 -61 34 -68 45 -130 60 -220 53 -100 -9 -175 -48
-289 -154 -99 -90 -168 -133 -218 -133 -40 0 -38 -12 7 -48 229 -178 536 -177
702 3 48 52 70 99 80 165 6 44 8 46 71 77 36 17 134 54 218 81 123 40 152 47
147 34 -20 -53 -45 -163 -45 -200 0 -38 -4 -45 -32 -60 -18 -9 -58 -41 -89
-70 -172 -160 -184 -423 -30 -669 28 -46 41 -54 41 -25 1 48 45 112 149 212
59 58 117 117 127 132 l19 28 55 -28 c47 -23 68 -27 144 -28 l89 0 35 -40 c69
-78 78 -90 127 -159 27 -38 80 -100 118 -137 40 -39 66 -72 62 -78 -4 -7 -51
-33 -104 -59 -53 -26 -110 -56 -126 -66 -31 -18 -31 -18 -74 10 -55 37 -129
44 -201 20 -116 -39 -275 -174 -349 -298 -37 -63 -94 -219 -89 -245 4 -21 37
-30 113 -31 178 -2 388 90 516 226 94 102 109 145 84 253 -5 21 1 30 42 60 26
20 68 42 93 49 119 35 293 141 500 305 74 58 137 101 139 95 2 -7 -2 -65 -9
-130 -9 -79 -11 -167 -6 -259 l7 -139 -64 -63 c-71 -70 -94 -119 -104 -223 -8
-87 9 -153 78 -296 55 -115 60 -132 60 -193 0 -36 4 -66 8 -66 27 0 141 108
198 188 64 89 93 176 93 285 0 169 -66 289 -194 352 -32 16 -42 27 -48 55 -30
134 27 529 88 612 35 47 138 133 216 180 112 67 196 91 318 92 132 1 156 -10
287 -137 261 -252 527 -615 593 -809 62 -180 130 -780 130 -1143 0 -227 -18
-326 -112 -630 -181 -583 -491 -1083 -793 -1277 -160 -103 -267 -110 -538 -31
-97 27 -144 35 -232 38 -90 4 -102 3 -65 -6 132 -29 193 -45 383 -101 114 -33
207 -63 207 -67 0 -13 -90 -62 -200 -108 l-115 -48 -300 0 c-326 -1 -404 -10
-590 -71 -131 -42 -373 -180 -338 -191 7 -3 47 13 90 35 172 87 328 126 565
142 143 9 435 3 443 -10 3 -4 -30 -47 -73 -95 -140 -158 -208 -261 -200 -301
2 -10 31 27 73 91 110 169 220 258 481 388 281 141 498 281 614 397 95 96 227
266 346 447 51 77 103 148 116 157 30 21 55 20 67 -3 28 -51 -118 -441 -251
-675 -65 -113 -148 -211 -381 -453 -103 -106 -209 -223 -236 -259 -59 -77
-143 -238 -231 -442 -130 -302 -125 -344 9 -69 49 100 98 190 109 200 19 17
20 17 43 -11 13 -16 37 -51 53 -78 45 -74 45 -32 0 95 l-38 108 46 65 c26 35
86 109 134 164 115 129 451 470 458 464 2 -3 1 -37 -4 -75 -12 -91 -12 -255
-1 -235 5 8 21 85 35 171 31 190 35 200 146 424 49 99 112 242 139 317 54 144
181 575 181 612 0 46 60 96 114 96 48 0 100 -60 139 -162 97 -257 198 -610
221 -778 26 -187 66 -608 66 -696 0 -140 -38 -253 -138 -408 -28 -44 -49 -82
-47 -85 3 -2 19 8 35 24 57 55 170 271 170 326 0 41 26 11 77 -90 59 -115 100
-175 191 -276 81 -90 88 -104 98 -200 l8 -80 13 70 c8 39 16 75 18 82 3 9 21
5 62 -13 176 -79 353 -138 337 -113 -3 5 -11 9 -19 9 -32 0 -299 144 -367 198
-169 134 -285 354 -324 612 -14 94 -20 440 -8 440 4 0 65 -56 136 -125 123
-120 162 -149 138 -106 -16 31 -120 158 -198 244 -80 87 -86 104 -121 292 -11
61 -36 166 -57 235 -89 307 -48 348 186 185 135 -94 158 -101 422 -115 286
-16 385 -40 500 -123 78 -56 173 -153 187 -190 17 -43 13 -152 -10 -313 -11
-81 -18 -149 -15 -151 4 -5 15 28 76 235 31 108 27 111 185 -131 67 -104 197
-243 298 -321 71 -54 243 -143 254 -132 4 3 4 7 2 9 -2 2 -40 28 -83 58 -111
76 -282 240 -273 263 9 22 134 81 217 102 36 9 67 19 70 21 12 13 -192 -9
-268 -28 -46 -12 -84 -20 -86 -18 -1 2 -45 85 -97 184 -117 223 -174 312 -253
391 -110 110 -275 203 -402 228 -43 9 -176 20 -294 25 -260 11 -298 22 -385
108 -134 131 -321 487 -408 773 -56 186 -124 503 -182 850 -45 272 -61 393
-85 655 -11 121 -28 279 -36 350 -19 155 -21 475 -4 594 15 107 43 164 116
230 151 138 423 202 521 122 68 -56 77 -127 43 -341 -11 -69 -20 -166 -20
-217 0 -88 -1 -93 -26 -110 -105 -72 -155 -145 -175 -256 -16 -85 -3 -165 45
-283 44 -110 58 -177 46 -230 -5 -21 -10 -43 -10 -47 0 -20 110 54 182 122 65
61 86 89 121 160 38 79 42 94 45 182 7 160 -40 269 -145 336 l-53 34 0 122 c0
89 5 134 17 167 18 50 25 268 10 328 -12 44 -2 43 134 -25 92 -46 127 -70 179
-123 106 -107 225 -297 363 -574 38 -77 39 -81 23 -105 -10 -14 -29 -50 -43
-79 -23 -49 -25 -63 -21 -145 6 -127 38 -188 169 -323 100 -103 138 -163 139
-218 l0 -29 26 24 c41 38 113 194 131 286 14 67 15 94 6 156 -27 190 -154 337
-306 356 l-52 6 -123 238 c-68 131 -122 240 -120 242 2 2 71 -11 153 -29 83
-18 172 -37 199 -42 27 -5 52 -16 56 -24 4 -8 15 -32 23 -52 73 -169 326 -245
540 -162 14 5 20 1 24 -17 12 -44 92 -194 122 -229 l31 -35 62 65 c94 97 159
245 179 403 11 88 6 151 -18 237 -20 72 -47 108 -97 131 l-41 18 0 198 c0 181
-3 204 -24 268 -57 170 -154 316 -315 475 -53 52 -96 97 -96 101 0 3 28 9 63
12 34 3 161 31 281 61 121 31 241 56 267 56 92 0 191 -54 253 -138 85 -117
176 -309 206 -436 25 -105 44 -285 36 -329 -5 -29 -12 -36 -46 -46 -93 -28
-154 -127 -166 -266 -14 -175 40 -364 144 -499 59 -78 66 -79 119 -21 58 62
116 185 144 301 17 70 20 110 17 189 -8 170 -55 269 -143 299 l-40 13 -8 79
c-8 78 -2 262 8 272 7 7 105 -89 105 -102 0 -5 -10 -29 -21 -53 -45 -93 -6
-212 108 -328 132 -133 310 -220 453 -220 l65 0 3 48 c4 69 -21 158 -79 277
-44 89 -64 117 -133 185 -133 133 -247 177 -334 131 l-33 -17 -43 38 c-67 61
-141 170 -217 321 -114 229 -177 300 -305 342 -35 12 -64 26 -64 32 0 14 237
247 385 377 148 130 356 288 424 322 25 13 62 23 82 23 43 1 123 -47 196 -118
l53 -50 -6 -85 c-5 -73 -3 -95 16 -144 46 -122 145 -207 309 -266 99 -36 162
-77 198 -130 l23 -33 11 28 c17 43 23 240 10 305 -39 186 -183 340 -347 370
-47 9 -71 8 -126 -6 l-69 -17 -44 37 c-99 80 -170 154 -159 165 15 15 284 130
304 130 9 0 26 -13 37 -28 32 -44 83 -63 166 -64 211 -1 482 203 567 428 9 23
7 27 -38 46 -36 16 -73 23 -157 26 -149 6 -251 -14 -369 -72 -161 -79 -236
-167 -221 -261 7 -48 26 -35 -190 -129 -169 -74 -270 -129 -434 -235 -69 -44
-127 -78 -130 -76 -6 7 -2 209 5 263 5 32 12 46 28 52 70 28 134 104 166 200
19 54 21 78 16 145 -3 44 -8 92 -12 107 -5 23 -1 30 34 52 64 40 137 121 175
194 39 75 77 189 77 233 l0 30 -47 -28 c-46 -27 -55 -28 -223 -34 -147 -5
-184 -10 -233 -28 -113 -44 -194 -130 -221 -235 -19 -71 -26 -80 -73 -94 -107
-31 -246 -44 -417 -40 -96 2 -178 6 -181 10 -4 4 -1 26 6 50 l14 43 60 7 c108
14 181 90 232 241 24 74 27 97 28 227 0 154 -18 241 -65 318 l-20 32 -42 -21
c-55 -28 -140 -109 -194 -185 -89 -124 -136 -260 -137 -398 -1 -96 19 -147 70
-179 33 -21 34 -24 29 -67 -4 -24 -11 -49 -16 -54 -7 -7 -45 -3 -118 12 -59
12 -117 22 -129 22 -13 0 -23 4 -23 10 0 5 3 9 8 9 4 -1 10 0 15 1 4 1 11 3
15 4 21 3 82 53 92 76 30 64 20 190 -15 204 -8 3 -15 18 -15 33 0 35 -33 177
-61 260 l-21 63 -25 -31 -26 -30 -91 7 c-56 4 -106 2 -130 -5 -22 -6 -41 -9
-43 -7 -7 7 50 153 88 226 59 113 157 237 313 394 210 211 303 270 388 244 83
-25 154 -114 228 -288 41 -95 42 -101 26 -119 -46 -50 -58 -180 -27 -280 64
-205 281 -350 525 -351 l58 0 -31 35 c-45 52 -59 92 -75 223 -22 174 -55 252
-141 331 -58 53 -118 80 -198 89 l-62 7 -74 144 c-72 140 -126 212 -190 252
-15 9 -22 20 -17 27 10 17 172 98 276 137 116 45 197 65 310 76 52 5 111 12
132 15 28 5 40 2 52 -13 9 -10 33 -37 53 -61 101 -119 300 -143 479 -57 91 44
202 157 258 264 37 71 38 74 15 67 -74 -23 -137 -19 -259 19 -113 35 -127 37
-218 33 -69 -4 -110 -11 -145 -26 -60 -27 -139 -100 -162 -152 -10 -22 -26
-42 -37 -46 -33 -10 -215 -6 -237 5 l-21 12 21 42 c46 92 194 267 264 313 21
14 28 13 74 -2 71 -23 159 -16 238 20 87 39 166 125 228 245 57 111 93 154
149 183 l40 20 -26 14 c-15 8 -51 20 -80 28 -206 53 -395 11 -524 -118 -92
-93 -132 -199 -113 -302 10 -55 7 -62 -42 -99 -58 -44 -193 -207 -243 -294
-24 -42 -54 -82 -67 -90 -37 -22 -129 -51 -129 -40 0 6 12 31 26 55 22 37 26
54 22 98 l-4 53 34 -14 c31 -13 36 -12 53 3 15 13 16 21 7 38 -27 52 -94 130
-135 156 -33 21 -63 57 -115 137 l-71 108 -10 -35 c-12 -48 -24 -60 -61 -60
-17 0 -46 -4 -64 -9 -17 -5 -32 -7 -32 -4 0 3 13 22 30 43 67 85 154 318 136
365 -7 20 -142 20 -220 0 -70 -18 -198 -76 -242 -110 -18 -14 -35 -25 -37 -25
-3 0 -1 17 4 38 15 65 10 150 -17 265 -27 119 -28 183 0 238 13 27 13 29 -4
29 -37 0 -182 -84 -245 -142 -114 -104 -169 -226 -167 -368 1 -107 29 -177 99
-246 63 -62 62 -53 24 -234 -11 -52 -27 -171 -36 -265 -9 -93 -19 -174 -22
-178 -3 -4 -10 -3 -17 2 -10 8 -12 38 -8 111 3 65 1 100 -6 100 -5 0 -12 -7
-15 -15 -4 -8 -25 -27 -48 -42 l-42 -28 -69 75 c-105 113 -258 306 -258 325 0
9 5 25 10 35 21 40 30 119 19 177 -24 127 -107 231 -254 318 -80 47 -165 117
-165 136 0 3 29 7 64 8 60 2 64 1 70 -23 9 -36 53 -84 100 -108 62 -33 204
-37 318 -9 143 34 305 129 379 222 l32 40 -24 25 c-35 37 -151 89 -244 110
-94 21 -247 23 -325 5 -80 -19 -195 -77 -219 -109 -11 -16 -23 -41 -26 -58
-15 -67 -12 -64 -80 -64 -41 0 -65 4 -69 13 -3 8 -8 7 -16 -5 -9 -15 -25 -18
-88 -17 -42 0 -94 6 -115 12 l-37 12 61 70 c140 159 232 304 274 430 l30 90
60 5 c71 6 90 16 140 71 131 145 163 468 68 682 -14 31 -31 57 -37 57 -6 -1
-27 -9 -47 -20z m-333 -1445 c-14 -38 -35 -135 -42 -191 -20 -185 79 -382 237
-469 48 -27 64 -30 147 -31 102 -1 93 4 154 -84 41 -59 97 -128 176 -218 36
-40 62 -75 59 -78 -3 -3 -45 -12 -93 -21 -160 -27 -256 -77 -325 -168 -49 -65
-69 -122 -69 -196 0 -50 -3 -60 -23 -71 -22 -12 -80 -49 -267 -171 -47 -31
-125 -90 -175 -132 l-90 -76 -6 298 c-7 371 -17 437 -110 735 -27 90 -53 184
-56 210 -18 144 89 490 186 600 37 43 68 55 171 67 120 14 133 13 126 -4z
m1090 -575 c-8 -33 -7 -50 7 -89 9 -27 17 -51 17 -54 0 -7 -104 -77 -114 -77
-9 0 -7 78 2 82 5 2 15 37 23 78 12 62 18 77 39 87 37 19 38 17 26 -27z m109
-196 c40 -23 54 -26 98 -21 29 4 61 9 73 12 19 6 22 0 33 -63 9 -52 10 -80 2
-109 -14 -48 -13 -125 2 -183 15 -58 48 -67 72 -21 l16 31 31 -35 c34 -40 58
-55 103 -65 16 -4 39 -11 49 -16 13 -5 17 -4 12 4 -3 6 2 13 12 16 11 4 18 15
18 29 -1 24 39 48 120 73 37 11 46 11 58 -2 8 -7 23 -14 33 -15 10 0 -4 -8
-32 -18 -261 -94 -617 -372 -870 -681 -42 -52 -81 -96 -85 -98 -8 -3 -7 88 11
603 11 332 18 387 56 461 26 49 104 124 129 124 6 0 33 -12 59 -26z m-295
-635 c12 -128 -5 -466 -29 -585 -22 -104 -65 -261 -75 -271 -3 -4 -17 4 -31
17 -14 13 -27 21 -30 18 -8 -8 -35 -215 -35 -271 0 -35 -10 -68 -41 -130 -58
-115 -109 -198 -119 -192 -5 3 -12 30 -16 61 -6 55 -6 56 34 97 62 65 85 119
90 214 6 114 -19 192 -103 317 -67 101 -100 186 -93 237 3 16 1 29 -3 29 -4 0
-38 -33 -76 -74 -177 -189 -220 -417 -116 -609 36 -66 113 -134 172 -150 52
-16 65 -35 81 -117 l10 -52 -49 -62 c-69 -86 -232 -243 -321 -308 -41 -30
-147 -105 -235 -166 -88 -61 -191 -138 -230 -171 -131 -111 -310 -334 -401
-497 l-52 -96 -7 57 c-8 62 7 300 31 495 21 177 50 285 159 615 123 369 197
626 236 824 37 184 58 229 144 309 51 48 254 194 409 295 l44 28 51 -25 c190
-97 445 28 544 266 l21 52 14 -35 c8 -18 18 -73 22 -120z m-2044 109 c34 -15
71 -23 122 -24 l72 -2 50 -50 c27 -28 75 -63 107 -79 52 -25 69 -28 154 -28
113 0 113 0 186 -108 l48 -71 3 -165 c6 -271 -13 -360 -189 -886 -128 -381
-194 -561 -210 -571 -14 -8 -149 282 -149 320 0 84 10 106 66 141 67 43 108
100 134 183 34 111 26 194 -36 359 -35 96 -44 175 -24 227 15 39 -7 33 -94
-24 -171 -115 -265 -272 -266 -445 0 -140 65 -267 162 -316 l39 -20 -3 -77 -3
-77 -33 -3 c-25 -3 -50 7 -106 42 l-73 46 -5 72 c-6 88 -32 151 -88 212 -147
159 -383 194 -618 90 -89 -39 -90 -43 -24 -74 64 -31 85 -51 165 -162 105
-143 217 -208 356 -208 61 1 83 6 166 40 28 12 35 10 88 -24 32 -21 67 -39 79
-41 42 -8 107 -56 137 -102 40 -59 91 -218 91 -281 0 -26 -7 -105 -15 -177
-29 -260 -45 -489 -55 -761 -6 -170 -13 -281 -20 -288 -14 -14 -41 20 -130
167 -198 325 -503 687 -882 1048 -196 187 -268 274 -297 361 -52 158 -64 413
-27 588 35 164 106 337 149 364 49 31 313 50 334 24 6 -7 13 -26 17 -42 16
-66 70 -112 166 -140 69 -20 216 -21 312 -1 96 20 241 92 307 151 l52 47 -42
43 c-82 83 -266 157 -428 170 -87 7 -219 -14 -281 -46 -46 -24 -86 -70 -95
-110 -8 -38 -25 -42 -176 -44 -137 -1 -150 5 -123 55 81 158 261 340 479 486
94 63 259 163 268 163 3 0 28 16 57 35 29 19 58 35 65 35 7 0 34 -10 61 -22z
m-2447 -686 c17 -27 31 -56 31 -66 0 -26 29 -78 59 -104 l26 -23 -49 5 c-27 3
-59 6 -71 6 -18 0 -28 14 -54 68 -17 38 -31 72 -31 76 0 7 51 86 55 86 2 0 17
-22 34 -48z m727 -219 c8 -65 18 -138 21 -162 6 -43 6 -43 -18 -31 -13 7 -37
22 -54 34 -16 12 -65 40 -109 62 -78 41 -78 41 -55 58 13 9 29 16 35 16 6 0
26 17 45 37 65 71 111 114 116 109 2 -2 11 -58 19 -123z m-404 36 c79 -16 108
-29 108 -50 0 -23 2 -23 -69 -5 -31 8 -82 20 -114 26 -48 10 -56 14 -46 26 14
17 49 18 121 3z m3972 -604 c15 -30 30 -54 34 -53 4 1 18 -3 32 -9 14 -6 34
-13 45 -15 15 -4 17 -6 5 -10 -8 -3 -67 -24 -130 -47 -111 -40 -140 -47 -140
-36 0 3 25 46 55 96 30 50 57 99 60 110 4 10 8 19 10 19 1 0 15 -25 29 -55z
m404 -42 l14 -23 -90 0 c-50 0 -97 -3 -106 -6 -11 -4 -16 0 -16 15 0 13 8 22
23 25 12 3 31 7 42 10 11 2 42 3 69 3 38 -2 52 -7 64 -24z m36 -67 c25 -11 40
-28 60 -70 30 -64 72 -215 81 -297 7 -55 7 -56 -24 -69 -44 -18 -97 -83 -110
-135 -35 -138 18 -352 123 -499 48 -68 159 -176 180 -176 31 0 88 104 111 202
40 171 26 345 -39 483 -48 103 -97 145 -166 145 -23 0 -31 5 -35 23 -26 122
-70 290 -86 330 -11 27 -18 51 -16 54 2 2 60 -6 128 -17 176 -30 357 -36 496
-16 62 8 119 13 127 10 9 -3 40 4 71 15 71 27 87 26 113 -1 20 -22 20 -25 6
-78 -17 -61 -14 -189 5 -252 19 -60 73 -131 129 -168 l52 -34 0 -70 c0 -79
-38 -221 -73 -271 -68 -98 -321 -338 -446 -424 -95 -65 -202 -121 -301 -158
-86 -33 -295 -45 -722 -41 l-317 3 25 56 c25 54 28 57 70 63 102 14 203 94
254 201 68 144 65 293 -10 449 -32 69 -106 176 -121 176 -5 0 -9 -15 -9 -32
-1 -54 -32 -108 -119 -203 -53 -58 -95 -116 -119 -164 -33 -66 -37 -85 -40
-162 -4 -78 -1 -94 23 -148 15 -33 36 -68 46 -77 24 -22 24 -34 -2 -104 l-21
-57 -106 -11 c-114 -12 -274 -57 -411 -117 -73 -32 -79 -32 -139 -23 -64 11
-135 4 -229 -24 -41 -12 -44 -11 -73 17 -16 16 -32 37 -36 47 -3 10 -9 18 -13
18 -9 0 -43 -139 -65 -262 -9 -56 -22 -90 -48 -130 -20 -29 -46 -82 -59 -118
-26 -75 -87 -172 -103 -167 -42 15 37 583 125 902 38 137 68 201 161 340 127
190 275 331 553 522 135 94 232 165 399 291 90 68 236 148 345 186 140 50 310
69 375 42z m-5103 -1146 c21 -11 79 -58 127 -104 48 -45 108 -94 132 -108 132
-77 287 -76 392 1 23 17 47 31 52 31 6 -1 36 -11 65 -24 l55 -24 -82 -37 c-45
-21 -82 -41 -82 -46 0 -10 38 2 142 45 48 20 96 36 107 36 20 0 20 -2 -6 -56
l-28 -55 -47 6 c-35 5 -57 2 -90 -13 -95 -42 -155 -123 -209 -283 -30 -84 -33
-106 -33 -212 -1 -73 -5 -116 -11 -114 -5 2 -73 21 -150 42 -393 105 -366 92
-453 215 -25 36 -72 102 -104 147 -44 62 -58 90 -58 116 0 49 9 67 34 67 41 0
100 44 133 99 38 63 53 127 53 221 0 42 4 70 10 70 6 0 29 -9 51 -20z m1789
-74 c0 -2 -11 -24 -25 -48 -25 -45 -26 -45 -90 -51 -111 -11 -193 -59 -262
-155 -44 -61 -69 -133 -83 -233 -16 -121 -35 -181 -76 -235 l-36 -47 94 6
c107 6 226 41 300 88 126 81 218 236 218 369 0 56 -24 143 -45 160 -21 18 -19
43 11 101 l25 51 152 -7 c335 -14 528 -37 612 -74 48 -21 90 -74 210 -261 170
-266 191 -334 202 -625 6 -187 -14 -1287 -25 -1348 l-7 -38 -65 88 c-174 236
-409 490 -593 642 -42 35 -77 70 -77 77 0 7 9 22 20 32 50 46 12 257 -49 277
-10 3 -29 35 -45 73 -27 66 -156 302 -166 302 -3 0 -15 -18 -28 -40 -24 -42
-32 -45 -122 -54 -77 -7 -117 -20 -184 -61 -63 -38 -101 -44 -132 -20 -35 26
-39 18 -34 -55 3 -38 5 -70 5 -70 -22 0 -742 187 -758 197 -4 2 20 34 54 71
114 121 176 241 199 382 15 96 2 151 -46 197 -19 17 -34 37 -34 43 0 24 51
110 77 128 16 11 48 26 73 35 117 39 412 92 565 100 109 6 165 7 165 3z m3273
-389 c37 -14 93 -43 124 -64 112 -74 271 -253 329 -370 l26 -53 -64 -65 -64
-64 -40 10 c-99 28 -233 -13 -320 -97 -57 -56 -89 -109 -130 -217 -43 -112
-72 -158 -125 -196 l-40 -30 38 -11 c58 -18 220 -24 288 -11 248 46 434 287
371 480 -15 47 -15 53 -1 75 15 23 83 76 98 76 28 0 47 -116 48 -307 2 -162
-3 -183 -45 -183 -12 0 -43 -13 -68 -29 -34 -22 -53 -44 -77 -92 -17 -34 -31
-73 -31 -86 0 -12 -2 -23 -4 -23 -2 0 -32 13 -67 30 -170 79 -349 54 -457 -65
-32 -35 -47 -44 -64 -41 -229 50 -337 79 -372 100 -22 14 -84 64 -136 112 -52
47 -114 100 -137 117 -49 35 -47 42 23 83 l43 25 38 -19 c164 -83 402 26 503
231 48 99 75 292 51 375 l-6 23 -30 -31 c-47 -50 -83 -67 -205 -100 -63 -17
-140 -45 -172 -62 -55 -29 -131 -99 -155 -143 -14 -25 -15 -24 -36 60 -21 83
-46 138 -91 197 -24 31 -35 59 -40 98 -4 30 -15 90 -25 132 l-18 78 63 20
c179 55 313 69 644 66 261 -2 266 -2 333 -29z m-894 -707 c16 0 18 -9 17 -82
l-1 -82 -55 -43 -55 -42 -60 29 c-33 16 -66 30 -72 30 -30 0 -15 22 53 75 35
27 69 91 79 149 l7 37 35 -36 c19 -19 42 -35 52 -35z m-801 -34 c23 -55 48
-83 93 -106 21 -11 39 -24 39 -28 0 -4 -40 -26 -88 -49 -48 -23 -124 -63 -170
-89 -47 -26 -87 -43 -92 -38 -14 15 26 176 63 256 25 55 43 81 64 92 16 8 36
22 43 31 13 16 15 15 23 -6 5 -13 16 -41 25 -63z m-2258 9 c102 -16 284 -65
352 -94 l41 -17 19 -90 c21 -99 21 -106 12 -151 -9 -48 21 -125 71 -181 40
-45 53 -51 109 -52 10 -1 15 -4 10 -8 -5 -5 -36 -30 -69 -57 -33 -27 -114
-102 -180 -167 l-120 -117 -55 27 c-53 26 -55 29 -62 75 -20 142 -137 258
-305 302 -96 25 -180 18 -328 -29 -17 -6 -24 2 -44 49 -30 71 -110 152 -195
200 -36 20 -68 40 -71 44 -6 10 43 158 62 187 17 27 58 37 243 63 248 35 366
39 510 16z m2723 -91 c9 -3 17 -13 17 -22 0 -16 -14 -17 -135 -17 -134 0 -155
6 -122 33 22 19 178 23 240 6z m-3535 -28 c4 -33 -16 -113 -30 -122 -15 -9
-71 40 -96 84 l-23 41 48 15 c71 22 97 17 101 -18z m1766 -335 c8 -12 -14 -20
-88 -31 -34 -5 -72 -12 -86 -15 l-25 -6 25 12 c28 13 139 47 157 48 6 1 14 -3
17 -8z m-1388 -390 c85 -81 154 -122 235 -140 100 -24 196 -6 275 51 l41 29
53 -23 53 -24 -54 -48 c-128 -116 -265 -205 -317 -206 -60 0 -135 66 -310 273
-87 102 -90 108 -80 137 5 17 12 30 15 30 3 0 43 -36 89 -79z"/>
        <path d="M3070 3158 c-13 -64 -28 -163 -36 -240 -6 -66 -21 -74 -56 -30 -77
95 -234 213 -283 212 -17 -1 -14 -5 15 -27 104 -79 277 -289 256 -310 -4 -4
-42 5 -86 20 -44 15 -92 27 -107 27 -22 -1 -11 -9 53 -41 44 -22 102 -57 128
-79 56 -46 81 -36 -204 -86 -286 -49 -512 -94 -530 -105 -10 -6 -6 -7 15 -4
415 68 1678 219 2048 245 82 5 156 15 165 21 12 7 -54 9 -228 5 -277 -6 -524
-24 -814 -61 -109 -14 -201 -23 -204 -20 -10 10 26 67 88 140 97 114 67 113
-40 -2 l-63 -67 6 84 c3 47 20 132 36 190 53 180 30 184 -28 5 -16 -49 -39
-137 -52 -195 -12 -58 -26 -109 -30 -114 -4 -4 -13 2 -21 15 -10 18 -13 79
-13 247 0 122 -1 222 -2 222 -1 0 -6 -24 -13 -52z"/>
        <path d="M5450 2840 c-52 -5 -106 -11 -120 -13 -14 -1 36 -6 110 -10 1102 -64
1530 -115 2239 -268 340 -73 252 -28 -137 70 -340 87 -575 128 -962 170 -423
46 -936 69 -1130 51z"/>
    </g>
</svg>
