<?xml version="1.0" standalone="no"?>
<!DOCTYPE svg PUBLIC "-//W3C//DTD SVG 20010904//EN"
        "http://www.w3.org/TR/2001/REC-SVG-20010904/DTD/svg10.dtd">
<svg version="1.0" xmlns="http://www.w3.org/2000/svg"
     width="700.000000pt" height="700.000000pt" viewBox="0 0 700.000000 700.000000"
     preserveAspectRatio="xMidYMid meet">
    <metadata>
        Created by potrace 1.11, written by Peter Selinger 2001-2013
    </metadata>
    <g transform="translate(0.000000,700.000000) scale(0.100000,-0.100000)"
       fill="#000000" stroke="none">
        <path d="M1535 6990 c-3 -5 -1 -10 4 -10 6 0 11 5 11 10 0 6 -2 10 -4 10 -3 0
-8 -4 -11 -10z"/>
        <path d="M1565 6990 c7 -11 -25 -21 -38 -13 -21 13 -39 12 -33 -2 4 -10 -2
-11 -25 -5 -17 5 -29 5 -29 0 0 -5 -7 -6 -17 -3 -9 4 -14 2 -10 -3 3 -5 -3
-10 -13 -10 -12 0 -16 5 -12 15 5 14 4 14 -10 1 -9 -8 -14 -18 -11 -22 2 -5
-3 -8 -12 -8 -9 0 -14 3 -12 8 3 4 -5 7 -18 7 -18 0 -21 -3 -13 -13 8 -9 7
-11 -7 -6 -13 5 -16 4 -10 -5 6 -10 3 -11 -14 -2 -16 9 -21 9 -21 0 0 -7 -3
-9 -7 -6 -3 4 -12 -1 -20 -11 -10 -14 -12 -14 -8 -1 4 9 0 16 -9 16 -8 0 -12
-6 -9 -14 4 -9 0 -11 -13 -6 -11 4 -15 3 -11 -4 5 -7 -1 -9 -15 -5 -16 4 -19
2 -13 -9 7 -12 6 -12 -7 -1 -14 11 -18 10 -28 -8 -10 -18 -14 -19 -28 -8 -9 7
-13 8 -10 3 4 -6 -2 -17 -14 -24 -11 -7 -17 -8 -14 -2 4 5 -2 9 -13 8 -20 -1
-23 -17 -6 -29 6 -5 6 -8 -2 -8 -6 0 -15 5 -18 10 -4 6 -11 8 -16 4 -6 -3 -5
-12 3 -22 10 -13 8 -13 -9 1 -21 18 -22 18 -33 -2 -6 -12 -17 -21 -25 -21 -7
0 -16 -6 -18 -12 -4 -10 -6 -10 -6 0 -1 7 -5 11 -11 7 -5 -3 -7 -13 -4 -23 5
-15 4 -15 -6 -2 -9 11 -13 12 -17 2 -2 -6 -9 -10 -14 -6 -5 3 -9 1 -9 -5 0 -5
6 -11 13 -14 6 -3 2 -4 -10 -4 -12 1 -19 6 -17 12 3 5 -1 2 -9 -7 -8 -10 -18
-14 -22 -10 -5 4 -5 -1 -1 -12 5 -14 2 -17 -9 -12 -8 3 -15 1 -15 -4 0 -6 -5
-10 -11 -10 -5 0 -7 6 -3 13 5 8 2 8 -9 -2 -17 -14 -24 -26 -9 -17 5 3 9 -1 9
-8 0 -8 -8 -11 -18 -9 -9 3 -20 0 -23 -6 -4 -6 -2 -11 5 -11 7 0 9 -3 6 -6 -4
-4 -13 -2 -20 4 -11 9 -19 6 -38 -16 -22 -24 -22 -25 -1 -8 12 11 22 14 22 9
0 -6 -16 -18 -36 -28 -20 -9 -33 -22 -31 -29 3 -7 -1 -13 -9 -13 -7 0 -11 5
-8 11 3 6 -4 1 -15 -12 -11 -13 -23 -23 -27 -22 -4 0 -9 -7 -10 -16 -2 -9 -10
-24 -19 -33 -16 -15 -17 -14 -6 7 7 12 9 22 7 22 -11 0 -35 -58 -28 -66 4 -5
-1 -2 -11 5 -15 12 -17 12 -11 -4 6 -15 3 -17 -14 -13 -12 3 -21 3 -20 -1 4
-12 -39 -71 -46 -64 -4 4 -4 0 0 -10 4 -12 1 -17 -10 -17 -8 0 -18 -11 -22
-25 -3 -14 -10 -22 -15 -19 -5 3 -9 -3 -9 -13 0 -10 -15 -29 -33 -41 -27 -20
-28 -23 -8 -17 20 6 22 5 12 -6 -6 -8 -19 -23 -27 -34 -14 -19 -15 -19 -4 5
11 24 10 24 -4 6 -15 -18 -20 -38 -17 -58 0 -5 -5 -7 -12 -5 -7 1 -11 -6 -9
-17 2 -10 -1 -16 -5 -13 -5 3 -15 -4 -22 -15 -11 -18 -11 -20 4 -15 9 4 14 3
10 -3 -3 -6 -16 -10 -28 -10 -12 0 -17 -4 -12 -8 6 -4 11 -15 11 -25 2 -15 -1
-16 -14 -5 -12 10 -14 10 -8 1 4 -8 2 -13 -6 -13 -9 0 -9 -3 2 -10 8 -5 10
-10 5 -10 -14 0 -38 -57 -30 -70 4 -6 1 -9 -6 -8 -6 2 -14 -3 -17 -11 -3 -9 0
-11 9 -7 8 4 3 -2 -11 -14 -15 -14 -19 -20 -8 -17 15 5 15 4 0 -23 -9 -16 -21
-26 -27 -22 -5 3 -5 -1 2 -9 10 -12 9 -20 -4 -39 -12 -17 -13 -21 -2 -15 11 7
12 6 2 -7 -7 -8 -9 -19 -5 -23 4 -5 0 -6 -9 -2 -14 4 -16 0 -12 -30 4 -28 2
-34 -9 -28 -7 5 -10 5 -6 0 4 -4 3 -14 -3 -21 -7 -8 -7 -14 1 -19 6 -4 5 -12
-6 -22 -12 -13 -13 -17 -2 -24 10 -7 10 -9 -2 -9 -13 0 -13 -1 0 -10 10 -6 11
-10 3 -10 -7 0 -13 -5 -13 -11 0 -5 6 -7 12 -4 7 4 5 0 -5 -8 -22 -18 -22 -28
1 -21 10 4 13 2 7 -3 -5 -4 -16 -19 -23 -32 -13 -22 -12 -23 4 -17 16 6 17 5
2 -11 -8 -10 -13 -24 -10 -32 3 -9 0 -11 -9 -6 -11 6 -12 5 -1 -6 6 -7 12 -17
12 -22 0 -4 -6 -5 -12 -1 -10 6 -10 4 -1 -7 16 -16 17 -33 1 -23 -7 4 -8 3 -4
-5 12 -19 14 -61 3 -61 -5 0 -4 -7 3 -15 10 -12 10 -15 -1 -16 -8 0 -5 -4 6
-9 13 -6 15 -9 5 -9 -12 -1 -15 -15 -14 -69 0 -37 4 -73 8 -80 4 -7 2 -12 -6
-13 -7 0 -4 -4 7 -9 16 -7 17 -9 3 -9 -13 -1 -15 -8 -12 -28 3 -15 7 -30 10
-35 3 -4 0 -8 -7 -8 -8 0 -8 -4 1 -15 10 -12 10 -15 -1 -16 -8 0 -5 -4 6 -9
14 -6 15 -9 5 -9 -11 -1 -15 -11 -14 -39 0 -21 4 -44 8 -50 4 -7 1 -12 -6 -13
-7 0 -4 -4 7 -9 16 -7 17 -9 3 -9 -13 -1 -15 -8 -12 -28 3 -15 7 -30 10 -35 3
-4 0 -8 -7 -8 -8 0 -8 -4 1 -15 10 -12 10 -15 -1 -16 -8 0 -5 -4 6 -9 14 -6
15 -9 5 -9 -11 -1 -15 -11 -14 -39 0 -21 4 -44 8 -50 4 -7 1 -12 -6 -13 -7 0
-4 -4 7 -9 16 -7 17 -9 3 -9 -13 -1 -15 -8 -12 -28 3 -15 7 -30 10 -35 3 -4 0
-8 -7 -8 -8 0 -8 -4 1 -15 10 -12 10 -15 -1 -16 -8 0 -5 -4 6 -9 14 -6 15 -9
5 -9 -11 -1 -15 -11 -14 -39 0 -21 4 -44 8 -50 4 -7 1 -12 -6 -13 -7 0 -4 -4
7 -9 16 -7 17 -9 3 -9 -13 -1 -15 -8 -12 -28 3 -15 7 -30 10 -35 3 -4 0 -8 -7
-8 -8 0 -8 -4 1 -15 10 -12 10 -15 -1 -16 -8 0 -5 -4 6 -9 14 -6 15 -9 5 -9
-11 -1 -15 -11 -14 -39 0 -21 4 -44 8 -50 4 -7 1 -12 -6 -13 -7 0 -4 -4 7 -9
16 -7 17 -9 3 -9 -13 -1 -15 -8 -12 -28 3 -15 7 -30 10 -35 3 -4 0 -8 -7 -8
-8 0 -8 -4 1 -15 10 -12 10 -15 -1 -16 -8 0 -5 -4 6 -9 14 -6 15 -9 5 -9 -11
-1 -15 -11 -14 -39 0 -21 4 -44 8 -50 4 -7 1 -12 -6 -13 -7 0 -4 -4 7 -9 16
-7 17 -9 3 -9 -13 -1 -15 -8 -12 -28 3 -15 7 -30 10 -35 3 -4 0 -8 -7 -8 -8 0
-8 -4 1 -15 10 -12 10 -15 -1 -16 -8 0 -5 -4 6 -9 14 -6 15 -9 5 -9 -11 -1
-15 -11 -14 -39 0 -21 4 -44 8 -50 4 -7 1 -12 -6 -13 -7 0 -4 -4 7 -9 16 -7
17 -9 3 -9 -13 -1 -15 -8 -12 -28 3 -15 7 -30 10 -35 3 -4 0 -8 -7 -8 -8 0 -8
-4 1 -15 10 -12 10 -15 -1 -16 -8 0 -5 -4 6 -9 14 -6 15 -9 5 -9 -11 -1 -15
-11 -14 -39 0 -21 4 -44 8 -50 4 -7 1 -12 -6 -13 -7 0 -4 -4 7 -9 16 -7 17 -9
3 -9 -13 -1 -15 -8 -12 -28 3 -15 7 -30 10 -35 3 -4 0 -8 -7 -8 -8 0 -8 -4 1
-15 10 -12 10 -15 -1 -16 -8 0 -5 -4 6 -9 14 -6 15 -9 5 -9 -11 -1 -15 -11
-14 -39 0 -21 4 -44 8 -50 4 -7 1 -12 -6 -13 -7 0 -4 -4 7 -9 16 -7 17 -9 3
-9 -13 -1 -15 -8 -12 -28 3 -15 7 -30 10 -35 3 -4 0 -8 -7 -8 -8 0 -8 -4 1
-15 10 -12 10 -15 -1 -16 -8 0 -5 -4 6 -9 14 -6 15 -9 5 -9 -11 -1 -15 -11
-14 -39 0 -21 4 -44 8 -50 4 -7 1 -12 -6 -13 -7 0 -4 -4 7 -9 16 -7 17 -9 3
-9 -13 -1 -15 -8 -12 -28 3 -15 7 -30 10 -35 3 -4 0 -8 -7 -8 -8 0 -8 -4 1
-15 10 -12 10 -15 -1 -16 -8 0 -5 -4 6 -9 14 -6 15 -9 5 -9 -11 -1 -15 -11
-14 -39 0 -21 4 -44 8 -50 4 -7 1 -12 -6 -13 -7 0 -4 -4 7 -9 16 -7 17 -9 3
-9 -13 -1 -15 -8 -12 -28 3 -15 7 -30 10 -35 3 -4 0 -8 -7 -8 -8 0 -8 -4 1
-15 10 -12 10 -15 -1 -16 -8 0 -5 -4 6 -9 14 -6 15 -9 5 -9 -11 -1 -15 -11
-14 -39 0 -21 4 -44 8 -50 4 -7 1 -12 -6 -13 -7 0 -4 -4 7 -9 16 -7 17 -9 3
-9 -13 -1 -15 -8 -12 -28 3 -15 7 -30 10 -35 3 -4 0 -8 -7 -8 -8 0 -8 -4 1
-15 10 -12 10 -15 -1 -16 -8 0 -5 -4 6 -9 14 -6 15 -9 5 -9 -11 -1 -15 -11
-14 -39 0 -21 4 -44 8 -50 4 -7 1 -12 -6 -13 -7 0 -4 -4 7 -9 16 -7 17 -9 3
-9 -13 -1 -15 -8 -12 -28 3 -15 7 -30 10 -35 3 -4 0 -8 -7 -8 -8 0 -8 -4 1
-15 10 -12 10 -15 -1 -16 -8 0 -5 -4 6 -9 14 -6 15 -9 5 -9 -11 -1 -15 -11
-14 -39 0 -21 4 -44 8 -50 4 -7 1 -12 -6 -13 -7 0 -4 -4 7 -9 16 -7 17 -9 3
-9 -13 -1 -15 -8 -12 -28 3 -15 7 -30 10 -35 3 -4 0 -8 -7 -8 -8 0 -8 -4 1
-15 10 -12 10 -15 -1 -16 -8 0 -5 -4 6 -9 14 -6 15 -9 5 -9 -11 -1 -15 -11
-14 -39 0 -21 4 -43 7 -49 4 -6 1 -14 -5 -16 -10 -4 -10 -6 0 -6 6 -1 12 -6
12 -12 0 -5 -5 -7 -12 -3 -7 5 -8 3 -3 -7 5 -7 8 -26 7 -42 -1 -16 2 -26 7
-23 11 7 8 -20 -4 -31 -4 -4 -5 -2 0 6 5 10 4 12 -4 7 -6 -4 -8 -13 -4 -19 4
-7 8 -16 8 -22 1 -5 7 -9 14 -7 7 1 10 -2 6 -8 -3 -6 -11 -8 -16 -5 -5 4 -9 1
-9 -4 0 -6 4 -11 9 -11 11 0 19 -30 14 -48 -3 -6 -10 -9 -16 -5 -8 5 -8 2 0
-9 7 -8 10 -18 6 -22 -4 -4 1 -4 12 0 18 7 18 6 6 -9 -10 -13 -10 -17 -1 -17
9 0 9 -4 -1 -17 -12 -14 -12 -16 0 -8 11 6 13 3 7 -18 -3 -14 -1 -29 4 -32 6
-4 8 -11 5 -16 -4 -5 -2 -9 3 -9 5 0 9 -10 9 -22 0 -29 13 -59 22 -53 4 2 5
-9 3 -26 -3 -17 0 -29 7 -29 6 0 11 -11 11 -24 0 -14 5 -28 10 -31 8 -5 7 -12
-2 -23 -11 -13 -11 -14 8 -4 16 9 21 8 21 -3 0 -8 -5 -11 -10 -8 -5 3 -7 0 -5
-8 3 -8 10 -13 16 -12 5 1 8 -7 5 -17 -3 -12 0 -20 7 -20 8 0 10 -8 7 -21 -4
-15 1 -23 19 -31 18 -9 21 -14 13 -25 -9 -9 -8 -13 0 -13 6 0 11 -9 11 -20 0
-11 5 -20 11 -20 5 0 7 -4 4 -10 -3 -5 -1 -10 4 -10 6 0 10 -6 8 -12 -1 -8 6
-12 18 -10 16 3 18 1 7 -9 -10 -11 -8 -16 10 -27 17 -10 18 -12 4 -7 -16 5
-17 3 -6 -10 7 -8 17 -12 22 -9 6 4 4 -4 -3 -17 -12 -23 -11 -23 6 -9 17 14
18 13 13 -8 -6 -20 -4 -21 8 -11 12 10 15 10 12 -2 -2 -8 3 -13 12 -11 12 3
12 1 3 -9 -10 -10 -9 -15 5 -26 9 -8 11 -11 3 -7 -9 5 -12 3 -7 -4 4 -7 13
-12 21 -12 7 0 15 -10 17 -22 2 -13 13 -27 26 -33 15 -7 21 -16 18 -28 -3 -14
-1 -16 8 -7 10 7 17 6 27 -7 9 -11 10 -14 2 -9 -7 4 -13 2 -13 -3 0 -11 15
-15 34 -12 5 1 3 -6 -5 -15 -9 -12 -9 -15 -2 -10 7 4 13 2 13 -3 0 -6 10 -11
23 -12 12 0 16 -3 10 -6 -10 -3 -10 -8 1 -19 8 -8 19 -14 25 -14 10 0 15 -14
12 -33 -1 -4 7 -3 18 2 16 9 18 8 14 -7 -2 -10 4 -25 13 -33 16 -12 17 -12 10
1 -4 8 -1 7 8 -4 8 -10 19 -15 24 -12 6 3 13 -1 16 -10 4 -10 2 -13 -6 -8 -7
4 -8 3 -4 -4 4 -7 14 -12 22 -12 10 0 12 -5 8 -12 -5 -8 0 -7 11 2 11 9 16 10
11 3 -4 -8 -2 -13 4 -13 6 0 8 -6 4 -12 -6 -10 -4 -10 7 -1 16 16 29 17 29 2
0 -5 -4 -7 -10 -4 -15 9 -12 -4 4 -21 11 -11 16 -11 19 -1 4 9 6 9 6 -1 1 -7
6 -10 13 -6 8 5 9 2 5 -10 -4 -10 -3 -15 3 -11 6 3 10 1 10 -4 0 -6 5 -11 11
-11 5 0 7 6 4 13 -4 6 1 3 10 -8 9 -11 23 -18 33 -17 13 3 14 1 4 -11 -11 -12
-8 -14 18 -12 27 2 29 1 18 -13 -10 -12 -10 -14 -1 -8 8 4 13 2 13 -6 0 -10 2
-10 9 1 7 11 11 9 21 -9 6 -12 14 -19 17 -16 4 3 15 -1 25 -11 10 -9 18 -12
18 -8 0 4 10 0 22 -11 12 -10 18 -13 14 -6 -4 6 -2 12 3 12 6 0 11 -6 12 -12
0 -7 4 -4 9 7 8 19 9 19 9 -1 1 -12 8 -25 17 -28 8 -3 12 -2 9 4 -3 6 -1 10 4
10 6 0 11 -6 11 -14 0 -8 7 -17 16 -20 14 -5 15 -4 4 9 -11 13 -10 14 4 9 9
-3 16 -10 16 -14 0 -5 9 -7 20 -5 13 2 20 -2 20 -11 0 -8 5 -14 11 -14 5 0 8
4 4 9 -3 5 0 13 6 17 7 4 9 3 6 -2 -3 -6 -2 -16 4 -24 5 -8 9 -10 9 -4 0 6 6
11 14 11 8 0 12 -6 9 -12 -3 -9 4 -11 21 -8 17 4 26 1 26 -7 0 -10 3 -10 15 0
12 10 15 9 15 -6 0 -15 2 -16 9 -6 7 11 13 9 30 -10 18 -19 21 -20 15 -4 -5
13 -4 17 3 13 6 -4 14 -1 16 5 3 7 6 3 6 -10 1 -20 4 -21 21 -12 15 8 20 8 20
-2 1 -8 7 -5 16 7 16 20 16 20 10 -1 -5 -18 -2 -21 26 -21 18 0 39 5 47 11 12
9 13 8 7 -2 -6 -11 0 -13 31 -11 21 2 44 0 51 -5 7 -4 12 -2 12 3 0 6 5 11 11
11 5 0 7 -5 4 -10 -7 -11 23 -9 41 3 6 3 14 3 18 0 11 -11 96 -11 89 0 -4 6
-1 7 8 1 19 -12 70 -13 92 -2 9 5 17 5 17 0 0 -12 123 -9 132 3 5 7 8 7 8 0 0
-5 18 -11 40 -12 29 -2 39 1 34 9 -5 7 -3 8 7 2 21 -13 47 -15 54 -4 4 6 12 7
18 3 19 -12 177 -10 177 2 0 6 3 6 8 -1 9 -13 125 -13 134 1 5 6 8 7 8 0 0 -5
18 -11 40 -12 29 -2 39 1 34 9 -5 7 -3 8 7 2 21 -13 47 -15 54 -4 4 6 12 7 18
3 19 -12 177 -10 177 2 0 6 3 6 8 -1 9 -13 125 -13 134 1 5 6 8 7 8 0 0 -5 18
-11 40 -12 29 -2 39 1 34 9 -5 7 -3 8 7 2 21 -13 47 -15 54 -4 4 6 12 7 18 3
18 -12 197 -10 197 2 0 6 3 6 8 0 9 -13 62 -13 81 -1 10 6 12 5 7 -2 -4 -7 -1
-12 9 -12 10 0 13 5 9 12 -5 8 -3 8 7 2 19 -12 199 -12 199 1 0 6 3 6 8 0 9
-13 62 -13 81 -1 10 6 12 5 7 -2 -4 -7 -1 -12 9 -12 10 0 13 5 9 12 -5 7 -3 8
7 2 20 -12 179 -12 179 1 0 7 3 7 8 0 9 -14 132 -14 132 0 0 7 3 7 8 0 9 -14
85 -14 94 0 5 7 8 7 8 0 0 -14 130 -14 130 0 0 6 4 4 9 -4 8 -13 12 -13 27 0
11 9 15 9 10 2 -4 -8 -1 -13 9 -13 10 0 13 5 9 12 -5 7 -3 8 7 2 20 -12 189
-12 189 1 0 7 3 7 8 0 9 -14 132 -14 132 0 0 7 3 7 8 0 4 -6 25 -11 47 -11 22
0 43 5 47 11 5 7 8 7 8 -1 0 -13 122 -13 132 1 5 7 8 7 8 0 0 -6 18 -11 40
-11 22 -1 37 3 33 9 -3 5 2 5 13 -1 22 -11 153 -10 171 1 6 4 14 3 18 -3 3 -5
11 -10 16 -10 6 0 7 6 3 12 -6 10 -5 10 7 1 9 -7 20 -8 29 -3 8 5 19 6 24 2
14 -8 75 -9 70 -1 -2 4 3 10 12 13 24 9 31 7 14 -4 -13 -8 -13 -10 2 -10 9 0
20 5 23 11 4 6 13 8 21 5 7 -3 20 2 29 10 8 9 15 12 15 7 0 -5 -5 -14 -12 -21
-7 -7 -9 -12 -6 -12 4 0 14 7 22 16 11 11 16 12 16 3 0 -7 7 -5 16 7 8 10 13
13 9 7 -3 -7 -1 -13 4 -13 6 0 11 5 11 10 0 6 5 10 11 10 5 0 7 -6 3 -12 -6
-10 -4 -10 7 -2 8 6 22 10 32 9 9 -2 15 1 11 6 -3 5 -10 7 -15 4 -5 -4 -9 -2
-9 3 0 6 11 9 25 8 14 0 25 -4 25 -9 0 -4 9 2 21 14 15 15 24 18 32 10 7 -7
14 -5 24 7 8 9 12 12 9 7 -2 -6 4 -11 14 -11 15 0 17 3 7 16 -6 8 -8 12 -3 8
5 -4 18 -2 30 4 20 10 20 10 6 -7 -14 -17 -14 -17 6 -7 12 6 25 8 29 4 4 -4 2
4 -5 17 -8 15 -8 21 -1 17 6 -4 20 -9 30 -11 14 -3 18 1 14 11 -6 16 17 16 29
-1 4 -5 8 0 8 13 0 12 5 22 10 22 6 0 10 -5 10 -10 0 -6 6 -5 14 2 8 7 12 16
9 20 -2 4 3 5 11 2 9 -3 13 -11 9 -17 -3 -6 -1 -7 6 -3 9 6 9 11 1 21 -9 11
-7 12 8 8 11 -2 23 1 27 8 6 8 4 10 -5 4 -9 -5 -11 -4 -6 4 6 9 11 9 22 0 9
-7 14 -8 13 -3 -4 21 2 28 11 14 6 -10 10 -11 10 -2 0 6 7 12 16 12 9 0 14 6
11 13 -3 9 3 13 17 13 12 -1 20 4 18 12 -1 8 2 11 9 6 7 -4 20 3 31 17 11 13
17 18 13 11 -3 -6 -1 -12 4 -12 6 0 11 6 11 14 0 8 5 18 12 22 7 5 8 3 3 -5
-4 -7 4 -5 19 4 14 10 26 22 26 27 0 5 5 6 12 2 7 -5 9 -2 6 7 -4 10 1 15 12
16 10 1 28 11 39 22 12 12 25 21 31 21 5 0 7 7 4 15 -4 10 0 15 14 15 11 0 26
8 33 17 13 16 12 17 -3 4 -12 -8 -18 -9 -18 -2 0 6 11 13 25 17 13 3 30 13 37
22 10 14 10 15 -2 4 -8 -6 -19 -12 -25 -12 -5 0 2 8 18 18 15 10 24 22 20 25
-3 4 5 7 18 7 20 0 21 2 9 11 -12 9 -11 10 6 6 17 -3 21 0 20 17 -1 12 4 20
12 18 6 -1 12 5 12 14 0 8 3 13 8 11 4 -3 13 1 20 9 8 9 9 14 2 14 -6 0 -9 4
-5 10 3 5 13 6 23 3 15 -6 16 -5 2 12 -9 11 -10 16 -2 11 8 -5 12 -1 12 11 0
15 2 16 11 3 9 -12 10 -11 6 7 -3 12 -2 22 2 21 19 -2 31 3 26 11 -3 5 -1 13
5 16 6 4 8 16 5 28 -2 12 -2 16 1 10 9 -20 24 -15 24 8 0 13 4 18 12 13 8 -5
9 -2 5 9 -4 12 -1 17 11 17 15 0 15 2 2 10 -13 8 -12 10 3 10 9 0 17 4 17 10
0 5 -8 7 -17 3 -15 -5 -14 -3 2 10 11 8 23 13 27 11 4 -3 5 3 1 12 -4 11 -3
15 5 10 6 -3 14 -1 18 5 4 7 3 9 -3 6 -6 -4 -13 0 -16 8 -4 9 -1 12 7 9 8 -3
17 0 22 7 4 7 3 10 -2 6 -5 -3 -10 3 -10 13 0 14 3 16 13 8 11 -8 12 -7 7 7
-5 11 -3 16 2 12 6 -3 15 3 22 14 7 11 8 19 2 19 -5 0 -10 -4 -10 -10 0 -5 -6
-10 -12 -10 -7 1 -2 10 11 20 13 11 17 20 10 20 -8 0 -6 5 6 13 10 8 15 19 11
26 -4 6 0 14 10 18 16 6 16 7 -2 14 -18 7 -18 8 0 8 12 1 16 6 12 17 -4 10 -2
13 6 8 7 -5 9 1 6 20 -4 21 -3 24 9 15 11 -10 12 -8 4 14 -9 22 -8 25 6 20 11
-4 14 -3 9 6 -12 19 3 61 22 61 14 0 14 2 3 9 -13 8 -13 12 0 27 9 11 9 15 2
10 -7 -4 -13 -3 -13 2 0 6 6 12 13 15 9 3 12 18 11 41 -2 27 0 35 9 29 7 -4 5
2 -3 12 -14 17 -13 18 2 12 13 -4 16 -2 11 11 -3 9 -11 23 -16 30 -7 9 -6 11
4 7 10 -4 15 1 15 14 0 11 -3 18 -6 16 -3 -2 -6 5 -6 15 0 10 3 17 7 15 3 -3
6 875 6 1950 0 1086 -4 1952 -8 1949 -5 -3 -9 0 -9 5 0 6 4 11 9 11 11 0 8 26
-4 37 -4 4 -5 2 0 -6 6 -10 4 -12 -4 -7 -9 6 -9 11 0 22 6 8 9 14 5 14 -3 0
-1 11 4 25 7 18 6 24 -3 22 -8 -1 -12 12 -13 37 0 22 -6 42 -13 44 -9 3 -9 7
1 20 10 12 10 14 1 8 -9 -5 -13 1 -13 18 0 14 -5 26 -11 26 -7 0 -9 9 -6 21 4
14 1 19 -7 16 -8 -3 -12 3 -11 16 1 12 -3 28 -9 36 -9 12 -8 13 4 6 12 -7 12
-5 -1 11 -9 10 -22 30 -28 44 -11 24 -11 24 3 6 9 -11 16 -24 16 -30 0 -5 3
-7 6 -4 7 8 -15 51 -32 61 -7 4 -10 15 -7 24 4 11 3 14 -5 9 -9 -5 -9 -1 -2
18 5 14 6 25 2 25 -22 -4 -33 3 -31 19 3 33 -1 43 -13 36 -8 -5 -8 -2 1 10 12
15 12 17 0 14 -8 -2 -13 3 -12 10 2 6 -4 12 -13 12 -8 0 -12 5 -9 10 3 6 0 10
-7 10 -10 0 -10 2 1 9 11 7 9 10 -9 16 -18 6 -20 9 -9 16 10 6 11 9 2 9 -7 0
-13 7 -13 15 0 8 -7 15 -16 15 -8 0 -12 5 -9 10 3 6 1 10 -4 10 -6 0 -11 5
-11 11 0 5 6 7 13 4 6 -4 0 4 -15 17 -16 13 -28 28 -28 34 0 6 -11 17 -25 24
-14 7 -23 15 -20 18 2 3 13 -1 22 -8 10 -8 6 -1 -9 14 -16 15 -28 31 -28 36 0
6 -5 10 -11 10 -5 0 -7 -5 -3 -12 4 -7 3 -8 -5 -4 -9 6 -9 11 -1 21 10 12 8
13 -10 10 -19 -4 -20 -2 -8 12 7 9 9 14 3 12 -5 -3 -18 2 -27 13 -10 10 -16
18 -13 18 3 0 -5 11 -17 25 -12 14 -28 25 -35 25 -7 0 -21 13 -31 30 -14 22
-21 27 -30 18 -8 -8 -9 -5 -6 13 5 19 4 21 -5 9 -9 -13 -11 -12 -11 3 0 10 -5
15 -10 12 -6 -3 -10 1 -10 10 0 9 -4 13 -10 10 -5 -3 -10 -1 -10 4 0 6 -6 11
-14 11 -8 0 -18 5 -22 12 -4 7 -3 8 4 4 7 -4 10 -2 6 7 -3 8 -16 13 -29 12
-17 -2 -22 1 -18 11 3 9 -2 14 -17 14 -11 0 -18 5 -15 10 3 6 1 10 -5 10 -6 0
-8 5 -4 13 5 8 2 8 -9 -2 -15 -11 -17 -11 -17 1 0 9 -9 14 -22 14 -17 -1 -22
4 -20 18 3 17 2 18 -12 7 -14 -12 -16 -11 -10 3 5 12 2 15 -12 9 -12 -4 -15
-3 -10 5 5 8 0 12 -13 12 -12 0 -21 5 -21 10 0 6 -9 10 -19 10 -11 0 -23 4
-26 10 -4 6 1 7 12 3 10 -3 15 -3 12 1 -6 7 -38 16 -71 20 -10 1 -21 6 -25 11
-5 4 -1 5 7 1 8 -4 6 -1 -4 8 -10 8 -23 13 -28 10 -4 -3 -15 2 -24 10 -8 9
-21 16 -27 15 -9 0 -8 -2 1 -6 6 -2 12 -9 12 -14 0 -5 -9 -4 -19 3 -11 7 -17
16 -15 20 5 7 -18 12 -38 9 -5 0 -8 4 -8 10 0 8 -4 8 -14 0 -11 -10 -17 -7
-30 11 -15 21 -16 21 -17 3 0 -18 -1 -18 -9 2 -6 14 -15 21 -24 17 -8 -3 -29
1 -46 9 -17 9 -28 11 -25 6 4 -5 1 -9 -4 -9 -6 0 -11 5 -11 10 0 7 -8 6 -22
-1 -21 -11 -22 -11 -10 4 11 13 11 15 0 13 -7 -1 -19 -6 -27 -10 -9 -6 -12 -5
-8 1 4 6 0 14 -9 17 -12 5 -15 2 -10 -11 5 -16 5 -16 -6 -3 -7 9 -22 14 -33
12 -17 -2 -17 -1 -5 8 11 8 7 9 -19 5 -19 -3 -39 -9 -44 -12 -6 -3 -7 -1 -3 5
10 17 -37 19 -52 2 -11 -13 -12 -13 -10 0 2 9 -3 13 -12 11 -8 -2 -19 -3 -25
-2 -59 6 -117 6 -121 -1 -3 -5 -11 -5 -17 -1 -20 12 -37 12 -37 0 0 -9 -2 -9
-8 -1 -8 13 -71 12 -91 0 -9 -6 -12 -5 -8 1 5 7 -11 10 -42 10 -28 -1 -47 -5
-44 -11 4 -5 1 -6 -8 0 -21 13 -39 14 -39 1 0 -9 -2 -9 -8 -1 -8 13 -71 12
-91 0 -9 -6 -12 -5 -8 1 5 7 -11 10 -42 10 -28 -1 -47 -5 -44 -11 4 -5 1 -6
-8 0 -21 13 -39 14 -39 1 0 -9 -2 -9 -8 -1 -8 13 -71 12 -91 0 -9 -6 -12 -5
-8 1 5 7 -11 10 -42 10 -28 -1 -47 -5 -44 -11 4 -5 1 -6 -8 0 -21 13 -39 14
-39 1 0 -9 -2 -9 -8 -1 -8 13 -71 12 -91 0 -9 -6 -12 -5 -8 1 5 7 -11 10 -42
10 -28 -1 -47 -5 -44 -11 4 -5 1 -6 -8 0 -21 13 -39 14 -39 1 0 -9 -2 -9 -8
-1 -8 13 -71 12 -91 0 -9 -6 -12 -5 -8 1 5 7 -11 10 -42 10 -28 -1 -47 -5 -44
-11 4 -5 1 -6 -8 0 -21 13 -39 14 -39 1 0 -9 -2 -9 -8 -1 -8 13 -71 12 -91 0
-9 -6 -12 -5 -8 1 5 7 -11 10 -42 10 -28 -1 -47 -5 -44 -11 4 -5 1 -6 -8 0
-21 13 -39 14 -39 1 0 -9 -2 -9 -8 -1 -8 13 -71 12 -91 0 -9 -6 -12 -5 -8 1 5
7 -11 10 -42 10 -28 -1 -47 -5 -44 -11 4 -5 1 -6 -8 0 -21 13 -39 14 -39 1 0
-9 -2 -9 -8 -1 -8 13 -71 12 -91 0 -9 -6 -12 -5 -8 1 5 7 -11 10 -42 10 -28
-1 -47 -5 -44 -11 4 -5 1 -6 -8 0 -21 13 -39 14 -39 1 0 -9 -2 -9 -8 -1 -8 13
-71 12 -91 0 -9 -6 -12 -5 -8 1 5 7 -11 10 -42 10 -28 -1 -47 -5 -44 -11 4 -5
1 -6 -8 0 -21 13 -39 14 -39 1 0 -9 -2 -9 -8 -1 -8 13 -71 12 -91 0 -9 -6 -12
-5 -8 1 5 7 -11 10 -42 10 -28 -1 -47 -5 -44 -11 4 -5 1 -6 -8 0 -21 13 -39
14 -39 1 0 -9 -2 -9 -8 -1 -8 13 -71 12 -91 0 -9 -6 -12 -5 -8 1 5 7 -11 10
-42 10 -28 -1 -47 -5 -44 -11 4 -5 1 -6 -8 0 -21 13 -39 14 -39 1 0 -9 -2 -9
-8 -1 -8 13 -71 12 -91 0 -9 -6 -12 -5 -8 1 5 7 -11 10 -42 10 -28 -1 -47 -5
-44 -11 4 -5 1 -6 -8 0 -21 13 -39 14 -39 1 0 -9 -2 -9 -8 -1 -8 13 -71 12
-91 0 -9 -6 -12 -5 -8 1 5 7 -11 10 -42 10 -28 -1 -47 -5 -44 -11 4 -5 1 -6
-8 0 -21 13 -39 14 -39 1 0 -9 -2 -9 -8 -1 -8 13 -71 12 -91 0 -9 -6 -12 -5
-8 1 5 7 -11 10 -42 10 -28 -1 -47 -5 -44 -11 4 -5 1 -6 -8 0 -21 13 -39 14
-39 1 0 -8 -3 -8 -8 -2 -9 14 -93 15 -85 2 3 -6 1 -7 -6 -3 -18 11 -63 18 -57
8 6 -10 -24 -9 -42 2 -7 4 -12 2 -12 -4 0 -6 -5 -8 -11 -5 -15 10 -59 13 -54
5z m4950 -519 c3 -5 2 -12 -3 -15 -5 -3 -9 1 -9 9 0 17 3 19 12 6z m-6045 -50
c0 -5 -7 -12 -16 -15 -14 -5 -15 -4 -4 9 14 17 20 19 20 6z m6510 -863 c0 -4
-4 -8 -9 -8 -6 0 -12 4 -15 8 -3 5 1 9 9 9 8 0 15 -4 15 -9z m-6917 -4193 c-3
-9 -8 -14 -10 -11 -3 3 -2 9 2 15 9 16 15 13 8 -4z m27 -85 c0 -5 -5 -10 -11
-10 -5 0 -7 5 -4 10 3 6 8 10 11 10 2 0 4 -4 4 -10z m325 -639 c-6 -5 -25 10
-25 20 0 5 6 4 14 -3 8 -7 12 -15 11 -17z m595 -457 c0 -8 -19 -13 -24 -6 -3
5 1 9 9 9 8 0 15 -2 15 -3z"/>
        <path d="M6195 6730 c-3 -5 -1 -10 4 -10 6 0 11 5 11 10 0 6 -2 10 -4 10 -3 0
-8 -4 -11 -10z"/>
        <path d="M6470 6521 c0 -6 4 -13 10 -16 6 -3 7 1 4 9 -7 18 -14 21 -14 7z"/>
        <path d="M6925 5801 c-3 -5 -2 -12 3 -15 5 -3 9 1 9 9 0 17 -3 19 -12 6z"/>
    </g>
</svg>
