<?xml version="1.0" standalone="no"?>
<!DOCTYPE svg PUBLIC "-//W3C//DTD SVG 20010904//EN"
        "http://www.w3.org/TR/2001/REC-SVG-20010904/DTD/svg10.dtd">
<svg version="1.0" xmlns="http://www.w3.org/2000/svg"
     width="700.000000pt" height="700.000000pt" viewBox="0 0 700.000000 700.000000"
     preserveAspectRatio="xMidYMid meet">
    <metadata>
        Created
    </metadata>
    <g transform="translate(0.000000,700.000000) scale(0.100000,-0.100000)"
       fill="#000000" stroke="none">
        <path d="M737 6990 c-187 -32 -360 -123 -488 -256 -108 -114 -168 -216 -216
-371 l-28 -88 0 -2775 0 -2775 28 -88 c95 -304 300 -509 604 -604 l88 -28
2775 0 2775 0 88 28 c304 95 509 300 604 604 l28 88 0 2775 0 2775 -28 88
c-48 155 -108 257 -216 371 -106 110 -226 183 -388 233 l-88 28 -2745 1
c-1510 1 -2767 -2 -2793 -6z m3079 -740 c1138 -90 1923 -729 2178 -1773 128
-524 127 -1153 -4 -1678 -145 -579 -469 -1049 -935 -1355 -426 -279 -903 -406
-1535 -407 -636 -1 -1124 129 -1552 413 -572 379 -909 972 -1005 1770 -24 203
-24 658 1 860 43 352 121 634 251 905 272 566 770 979 1397 1159 175 50 447
97 633 109 122 8 453 6 571 -3z"/>
        <path d="M3395 5313 c-426 -39 -740 -263 -930 -666 -77 -162 -132 -364 -167
-607 -21 -151 -18 -652 5 -815 97 -682 419 -1100 942 -1222 87 -20 342 -28
448 -14 266 36 523 170 678 354 146 173 240 363 304 612 65 252 90 554 74 872
-36 697 -276 1166 -704 1375 -184 89 -430 131 -650 111z"/>
    </g>
</svg>
